<svg xmlns="http://www.w3.org/2000/svg" style="display:block" viewBox="0 0 2048 2048"><path fill="#FEFEFE" d="M0 0h2048v2048H0z"/><path fill="#20263F" d="M1129.88 321.422c3.7-.363 7.53-.343 11.26-.419 115.85-2.375 222.87 30.866 314.83 101.879 15.39 11.891 30.47 23.967 44.49 37.482a501.84 501.84 0 0 1 145.59 289.952c3.36 23.884 4.46 48.055 4.89 72.151a490.4 490.4 0 0 1 194.74 116.226c85.97 84.157 132.42 202.257 133.21 321.887a473.55 473.55 0 0 1-134.87 330.52c-67.28 68.11-142.11 107.43-235.15 128.43-42.27 9.55-85.1 7.95-128.14 8.13l-124.14.34-475.677.61-205.02.14c-79.897-.03-152.026 4.93-230.11-15.65-29.752-7.85-57.84-19.09-85.549-32.38-96.133-46.13-171.771-119.08-225.021-211.09-70.385-121.61-83.648-258.48-47.355-393.02 6.17-22.87 14.822-44.69 24.391-66.33a511.25 511.25 0 0 1 164.022-207.663c14.001-10.551 28.049-20.752 43.274-29.496 7.046-39.342 18.13-75.36 39.461-109.574a278.34 278.34 0 0 1 174.852-125.396c54.214-12.544 116.954-7.953 167.819 15.728 8.734 4.066 16.88 9.342 25.044 14.431 15.588-27.146 36.185-53.703 56.846-77.248a499.33 499.33 0 0 1 346.313-169.64"/><path fill="#FEFEFE" d="M1149.12 362.471a156 156 0 0 1 3.09-.055 456.2 456.2 0 0 1 322.8 133.659 449.2 449.2 0 0 1 128.1 256.674c4.49 32.906 4.97 65.688 5.01 98.829 17.09 6.327 35.08 10.405 52.27 16.746 61.65 22.751 115.04 58.086 161.55 104.457 43.92 43.779 83.11 110.929 100.2 170.669 10.11 35.36 15.81 82.54 15.89 119.66.25 109.54-45.27 222.48-122.79 300.14-53.61 53.7-126.09 94.13-200.21 110.52-51.77 11.45-103.12 8.82-155.64 8.35l-155.13-1.09-719.76-1.91c-122.585.6-235.643-45.25-324.018-130.35a458.73 458.73 0 0 1-141.397-321.56c-2.213-118.92 43.618-241.286 126.644-327.165 77.889-80.566 179.847-137.553 291.756-151.877 22.219-2.844 44.878-3.064 67.253-3.465-63.495-14.023-133.666-8.147-195.339 11.502-15.467 4.927-30.351 11.346-45.319 17.59 7.055-32.994 20.61-69.194 40.114-96.725 35.119-49.575 90.888-87.021 151.307-96.919a224.03 224.03 0 0 1 151.389 28.617c11.535 6.85 21.985 15.154 32.838 22.993 18.61-42.181 55.129-91.738 86.786-125.186a451.84 451.84 0 0 1 322.606-144.104"/><path fill="#20263F" d="M1184.19 866.51c4.47 1.567 64.75 62.446 75.93 72.376-6.37 5.505-12.3 11.66-18.37 17.502-4.11 2.465-12.04-6.992-20.1-8.381-11.45-17.715-30.24-30.428-44.3-46.051-4.33-4.808-5.84-11.597-10.01-16.897-.29-.377-.6-.746-.9-1.119a1273 1273 0 0 0 17.75-17.43m-40.42-297.087c20.65-1.371 42.13.734 62.5 4.335a341.54 341.54 0 0 1 203.52 119.474c18.42 22.385 32.8 46.745 49.33 70.392-5.15 6.732-8.75 13.428-11.27 21.544-5.59 18.025-3.26 36.891 5.59 53.456a68.5 68.5 0 0 0 41.22 33.781c22.2 6.654 42.06.549 61.88-9.944 19.64 10.24 73.21 54.571 90.15 70.471-1.81 6.579-3.85 13.147-5.97 19.635-20.38 62.403-66.18 107.603-124.85 135.073-16.73 7.84-35.03 12.48-51.37 21l-1.51.79c-3.9-20.59-5.95-35.55-15.2-54.82-3.35-7.78-7.86-14.78-12.56-21.79l7.2-10.56c-.74-9.54-3.1-19.34-6.43-28.303-9.39-25.286-27.42-42.874-51.89-53.847-39.14-17.551-69.03-12.862-107.43 1.885-21.25-22.331-44.85-43.106-66.99-64.629-10.02-9.743-21.36-19.746-29.63-31.059 9.42-9.137 17.78-19.83 25.38-30.505 18.37-25.8 38.69-63.489 32.88-96.413-4.03-22.805-19.39-40.964-38.04-53.719-70.8-48.409-170.02-35.786-249.476-20.624 66.156-42.365 111.426-70.699 192.966-75.623"/><path fill="#FEFEFE" d="M1589.72 912.611c11.59 8.772 23.51 17.953 33.78 28.254-2.21 7.569-4.46 15.07-7.56 22.331-22.36 52.354-69.54 92.264-121.71 113.054-5.3 1.9-10.85 3.28-16.27 4.84-3.13-12.23-7.28-23.36-12.61-34.81a604 604 0 0 0 10.13-5.01c52.52-26.67 95.77-72.125 114.24-128.659m-444.05-323.174c24.17-1.853 50.38 1.794 73.76 7.587 94.34 23.375 164.73 83.138 214.37 165.527a308 308 0 0 0-2.5 6.097c-9.45 23.855-10.12 49.305.36 73.025 10.11 22.861 29.7 40.177 52.92 48.987 25.27 9.585 47.13 5.739 71.17-4.918-2.1 9.205-5.12 17.478-10.61 25.208-7.88 11.112-18.71 18.167-32.18 20.394-29.62 4.899-53.89-15.185-76.32-31.454-11.56-8.358-23.9-18.953-37.91-22.745-25.41-6.882-65.96 12.465-89.68 22.468-10.5 4.427-21.52 8.486-31.3 14.349-21.56-20.705-43.53-41.282-64.09-62.984 25.71-33.574 55.62-64.954 60.89-108.999 3.13-26.109-3.52-51.813-19.98-72.456-42.86-53.754-117.96-59.156-181.22-66.08 24.19-6.983 47.03-12.668 72.32-14.006"/><path fill="#20263F" d="M687.335 682.717c4.021 1.284 135.006 135.074 150.537 151.509 2.026-1.637 3.944-3.499 5.888-5.236 12.818 15.228 25.674 31.22 39.215 45.747 5.188 5.566 11.221 10.266 16.545 15.712 12.539 12.825 24.251 26.644 36.135 40.084-34.491 29.753-67.691 60.718-101.501 91.207-1.569 9.84-1.824 20.3-1.464 30.24 1.968 54.22 35.391 79.91 71.47 113.56 15.942-16.47 33.304-31.64 49.833-47.53 42.574-40.91 85.407-81.98 127.267-123.604 29.32-29.146 56.22-60.15 83.84-90.829 18.44 19.181 38.14 37.343 56.96 56.192-10.44 10.933-21.99 20.885-33.01 31.223-17.06 15.998-34.26 32.578-50.55 49.348-58.98 60.68-114.78 124.48-171.356 187.37 12.093 10.1 23.227 21.79 34.626 32.68l72.99 69.79 96.37 91.69c22.18 20.82 45.52 41.01 66.63 62.89 21.35 22.14 30.55 40.83 29.7 72.14a98.3 98.3 0 0 1-32.08 70.08c-19.47 18.02-48.23 26.52-74.42 25.35-17.39-.78-37.36-6.35-51.31-17.1-18.23-14.07-47.21-53.13-63.04-72.59l-116.111-144.47c-19.533-24.46-38.287-50.74-59.368-73.81-18.963 19.64-36.547 40.87-54.342 61.57l-68.901 79.7c-16.383 18.98-31.789 38.64-49.853 56.1-5.208 5.08-11.2 9.53-17.121 13.73-24.237 17.17-60.597 34.96-91.319 28.93-8.592-1.68-16.316-6.04-21.187-13.45-9.023-13.74-5.837-33.45-2.521-48.55 4.746-21.61 12.559-45.63 26.194-63.38 14.839-19.33 36.289-34.81 54.788-50.58a1583 1583 0 0 0 60.761-54.05 3857 3857 0 0 0 59.901-57.7c10.862-10.88 24.338-27.8 36.865-35.85-10.525-16.2-24.923-35.09-38.223-49.04-31.232-32.75-53.928-37.74-97.083-38.76-32.919 25.85-62.287 55.67-93.921 83-17.536-14.6-32.96-33.16-48.718-49.68-11.24-11.79-23.521-22.87-33.968-35.36 24.129-22.28 49.37-43.17 73.902-64.99l107.454-97.23c57.916-52.007 114.443-105.1 173.781-155.54l-7.993-8.204c-16.006 17.765-40.243 35.931-58.531 52.485L642.045 1022.6c-38.382 34.23-76.135 69.14-114.806 103.04-13.209 11.58-25.903 25.07-40.076 35.37-23.906-22.03-45.539-47.17-68.097-70.61-25.467-26.45-52.794-51.98-75.817-80.64a745 745 0 0 0 48.097-49.446c20.397 10.199 41.908 21.645 60.569 34.697-3.845-8.349-8.649-16.353-12.908-24.506-6.759-12.936-13.114-26.03-20.498-38.632 20.628-17.283 38.958-38.058 58.447-56.693l96.4-91.999c11.139-10.792 28.919-24.384 36.981-37.434 18.646 6.762 33.344 17.795 49.262 29.323-6.659-12.073-17.608-28.212-27.733-37.502z"/><path fill="#FEFEFE" d="M904.836 921.838c2.005 1.699 3.814 4.585 5.46 6.686-20.073 19.191-42.193 36.459-62.737 55.201-38.798 35.395-78.323 69.805-117.377 104.875-13.829 12.42-27.031 25.53-40.777 38.04a10019 10019 0 0 0-114.44 104.54c-.703-.48-1.521-1-2.126-1.59-2.081-2.04-2.269-2.43-2.141-5.15 3.894-6.72 12.574-12.57 18.287-18 24.05-22.84 48.506-45 73.072-67.28l133.762-120.28c36.096-32.772 71.255-66.127 109.017-97.042m266.114 8.758c3.16 1.18 5.4 3.552 7.87 5.767-14.15 17.255-245.632 251.717-251.458 253.737-4.049-3.32-7.441-7.19-10.941-11.06 26.954-21.68 51.047-47.63 76.035-71.55 41.004-39.23 82.024-78.26 122.104-118.459 19.11-19.17 37.35-39.185 56.39-58.435M815.29 1276.74c3.832 1.33 9.358 9.63 12.105 12.95a2899 2899 0 0 1-136.9 127.53c-23.276 20.54-46.592 41.6-70.769 61.05-2.83.6-7.292.62-9.929-.69-1.317-.65-1.244-1.49-1.723-2.78.46-5.33 4.569-9.7 8.246-13.31 18.759-18.42 40.059-34.88 59.779-52.3 46.018-40.66 97.916-87.18 139.191-132.45m69.886-381.783c3.886 2.311 6.927 5.625 10.143 8.766-14.068 11.842-27.387 24.553-41.198 36.692a6956 6956 0 0 0-122.594 109.165l-106.981 97.32c-23.042 20.97-46.599 41.2-68.863 63.03-4.142-2.97-7.213-7.03-9.995-11.24 26.908-23 52.787-47.51 79.047-71.25l130.39-117.36c43.003-38.739 88.305-75.002 130.051-115.123M657.223 739.725c10.108-9.925 20.173-19.959 30.712-29.425 21.465 19.567 40.9 41.896 61.347 62.544 20.499 20.701 53.419 47.659 68.345 72.071-33.694-14.76-64.741-54.185-96.52-73.172 26.906 27.134 56.172 51.93 85.004 76.965-5.536 5.058-11.326 9.886-16.98 14.815-21.99-22.161-46.518-45.208-71.795-63.62.331 7.063 48.134 52.239 57.475 60.771 2.484 2.27 5.476 4.357 6.98 7.378-.615 1.713-1.207 3.236-2.04 4.861-13.8 12.662-28.097 24.841-41.691 37.709-32.112-25.625-61.091-61.05-88.947-91.485-9.792-10.699-19.711-23.026-30.819-32.255 9.649 15.986 27.819 32.205 40.498 46.294 24.573 27.306 48.277 56.222 74.666 81.794l-19.121 18.703c-6.224-4.821-11.256-11.869-17.488-16.196-.497-.128-1.003-.224-1.49-.386-2.278-.755-2.95-1.627-4.509-3.332l-1.366.282c2.135 2.9 6.838 6.062 7.641 9.223l-.884.854a373 373 0 0 0 12.854 14.044 3449 3449 0 0 0-41.067 35.903l-7.537-7.07c.071.358.114.724.214 1.075.618 2.169 1.957 3.913 3.211 5.753-2.781-1.735-5.595-3.569-8.694-4.692 2.645 3.025 5.187 5.625 8.402 8.044-9.551 9.298-18.96 18.859-29.014 27.615l-5.07 4.14c-11.827 11.52-24.462 22.84-37.166 33.4-7.97-6.51-15.791-13.03-24.546-18.48 5.713 9.16 11.931 15.49 20.815 21.65-21.641 21.35-44.592 41.23-67.217 61.52l-2.533 2.56c-5.355 5.15-10.673 10.03-16.594 14.52-9.945-12.06-21.56-22.97-32.365-34.29a2041 2041 0 0 0-84.654-83.71c11.122 17.17 30.584 33.33 44.855 48.21 22.749 23.72 44.577 50.87 70.271 71.3l-10.864 10.89c-19.611-19.01-37.472-39.99-56.52-59.59a2881 2881 0 0 1-42.07-43.55c-6.948-7.31-15.006-14.59-20.682-22.94 8.086-9.36 16.071-18.94 25.673-26.8 22.604 11.706 44.604 23.2 65.624 37.62 15.133 10.38 29.098 22.42 44.451 32.47-22.231-37.43-43.295-76.691-61.483-116.266 29.14-29.854 60.199-58.003 90.331-86.857 28.055-26.865 55.505-54.628 83.148-81.942 19.384 10.537 38.586 23.343 55.95 36.946 14.984 11.739 29.392 25.345 46.196 34.368-6.707-12.089-13.26-24.557-20.671-36.218-13.718-21.586-28.897-42.136-42.266-64.016"/><path fill="#110E18" d="M696.241 924.118c-2.144-1.379-65.689-69.233-68.661-73.216 8.641 3.028 60.661 57.194 69.269 66.575-.497-.128-1.003-.224-1.49-.386-2.278-.755-2.95-1.627-4.509-3.332l-1.366.282c2.135 2.9 6.838 6.062 7.641 9.223zm-66.701 84.812c-5.461-6.63-12.49-12.613-18.643-18.672a4255 4255 0 0 0-41.264-40.149c-9.596-9.168-19.94-18.045-28.478-28.193l.382-.775c9.826 6.123 19.199 17.231 27.869 25.141a3555 3555 0 0 0 65.204 58.508zm150.211-136.017c-24.372-21.41-44.843-47.851-66.448-72.018-8.135-9.1-19.1-17.832-25.181-28.351 9.158 8.354 18.239 19.16 28.023 26.486.394.295.794.582 1.191.873.331 7.063 48.134 52.239 57.475 60.771 2.484 2.27 5.476 4.357 6.98 7.378-.615 1.713-1.207 3.236-2.04 4.861M518.893 1109.58c-19.051-16.18-36.691-33.9-54.913-50.99-16.34-15.32-34.215-30.45-48.828-47.43 6.229 2.73 12.988 10.3 18.346 14.87 30.358 25.88 60.138 52.32 87.928 80.99zm136.329-140.449c-3.412-2.205-108.368-115.566-110.226-118.801 7.587 4.554 107.599 106.127 115.495 116.665.071.358.114.724.214 1.075.618 2.169 1.957 3.913 3.211 5.753-2.781-1.735-5.595-3.569-8.694-4.692"/><path fill="#FEFEFE" d="M810.968 1042.89c1.691 7.53 2.035 15.7 3.262 23.36 2.844 17.77 9.478 36.68 18.999 51.98 12.519 20.12 28.882 34.98 45.51 51.48a3467 3467 0 0 0 58.788 57.23l236.733 226.19c14.2 13.72 59.34 53.6 66.21 68.26 8.88 18.96 8.42 42.42.55 61.54-8.01 19.44-23.62 34.17-42.98 42.18-21.67 8.97-43.03 8.84-64.62-.02-7.19-3.32-12.97-6.61-18.61-12.33-9.07-9.2-16.67-20.39-24.62-30.57a901 901 0 0 0-30.4-36.93c-32.02-37.54-61.803-76.51-92.618-115l-128.976-159.78c-17.354-21.69-33.525-44.54-51.37-65.8-24.202-28.82-58.932-48.97-96.601-52.02 7.553-9.81 17.832-18.01 26.938-26.34a3084 3084 0 0 1 46.572-42.02c15.503-13.73 30.661-29.03 47.233-41.41"/><path fill="#20263F" d="M1156.1 1503.13c10.62-1 20.73.16 30.46 4.7 12.53 5.85 22.92 16.48 27.45 29.65a50.6 50.6 0 0 1-2.68 39.94c-7.56 14.42-19.75 21.12-34.71 25.55-12.52 2.14-25.05.76-36.34-5.38-12.07-6.56-20.13-17.46-23.81-30.62-3.73-13.32-1.98-26.79 4.96-38.75 7.96-13.73 19.62-21.19 34.67-25.09"/><path fill="#FEFEFE" d="M1161.62 1525.13c5.99-.1 11.58.7 17.04 3.29 7.19 3.41 12.75 9.51 15.15 17.13a26.53 26.53 0 0 1-1.76 20.39c-4.53 8.72-11.92 12.53-20.8 15.46-6.5.75-12.71.24-18.66-2.69a27.62 27.62 0 0 1-14.45-17.12c-2.15-7.47-1.04-15.28 2.86-21.96 4.58-7.85 12.07-12.17 20.62-14.5"/></svg>